<svg xmlns="http://www.w3.org/2000/svg" xmlns:xlink="http://www.w3.org/1999/xlink" width="512" zoomAndPan="magnify" viewBox="0 0 384 383.999986" height="512" preserveAspectRatio="xMidYMid meet" version="1.0"><defs><filter x="0%" y="0%" width="100%" height="100%" id="06c4abba3d"><feColorMatrix values="0 0 0 0 1 0 0 0 0 1 0 0 0 0 1 0 0 0 1 0" color-interpolation-filters="sRGB"/></filter><g/><clipPath id="09b4c9d891"><path d="M 0 0 L 384 0 L 384 384 L 0 384 Z M 0 0 " clip-rule="nonzero"/></clipPath><linearGradient x1="-69.985051" gradientTransform="matrix(1.277874, 0, 0, 1.277367, 89.43205, -14.695809)" y1="77" x2="230.51415" gradientUnits="userSpaceOnUse" y2="77" id="6eadd8bdfc"><stop stop-opacity="1" stop-color="rgb(0%, 29.019165%, 67.83905%)" offset="0"/><stop stop-opacity="1" stop-color="rgb(0%, 29.019165%, 67.83905%)" offset="0.125"/><stop stop-opacity="1" stop-color="rgb(0%, 29.019165%, 67.83905%)" offset="0.1875"/><stop stop-opacity="1" stop-color="rgb(0%, 29.019165%, 67.83905%)" offset="0.21875"/><stop stop-opacity="1" stop-color="rgb(0.117493%, 29.039001%, 67.87262%)" offset="0.234375"/><stop stop-opacity="1" stop-color="rgb(0.85907%, 29.162598%, 68.080139%)" offset="0.238281"/><stop stop-opacity="1" stop-color="rgb(1.483154%, 29.267883%, 68.255615%)" offset="0.242187"/><stop stop-opacity="1" stop-color="rgb(2.107239%, 29.371643%, 68.431091%)" offset="0.246094"/><stop stop-opacity="1" stop-color="rgb(2.731323%, 29.476929%, 68.606567%)" offset="0.25"/><stop stop-opacity="1" stop-color="rgb(3.355408%, 29.580688%, 68.782043%)" offset="0.253906"/><stop stop-opacity="1" stop-color="rgb(3.979492%, 29.685974%, 68.95752%)" offset="0.257812"/><stop stop-opacity="1" stop-color="rgb(4.602051%, 29.789734%, 69.13147%)" offset="0.261719"/><stop stop-opacity="1" stop-color="rgb(5.226135%, 29.89502%, 69.306946%)" offset="0.265625"/><stop stop-opacity="1" stop-color="rgb(5.85022%, 29.998779%, 69.482422%)" offset="0.269531"/><stop stop-opacity="1" stop-color="rgb(6.474304%, 30.104065%, 69.657898%)" offset="0.273438"/><stop stop-opacity="1" stop-color="rgb(7.098389%, 30.207825%, 69.833374%)" offset="0.277344"/><stop stop-opacity="1" stop-color="rgb(7.722473%, 30.31311%, 70.00885%)" offset="0.28125"/><stop stop-opacity="1" stop-color="rgb(8.346558%, 30.41687%, 70.1828%)" offset="0.285156"/><stop stop-opacity="1" stop-color="rgb(8.970642%, 30.52063%, 70.358276%)" offset="0.289062"/><stop stop-opacity="1" stop-color="rgb(9.593201%, 30.62439%, 70.533752%)" offset="0.292969"/><stop stop-opacity="1" stop-color="rgb(10.217285%, 30.729675%, 70.709229%)" offset="0.296875"/><stop stop-opacity="1" stop-color="rgb(10.84137%, 30.833435%, 70.884705%)" offset="0.300781"/><stop stop-opacity="1" stop-color="rgb(11.465454%, 30.938721%, 71.060181%)" offset="0.304688"/><stop stop-opacity="1" stop-color="rgb(12.089539%, 31.04248%, 71.234131%)" offset="0.308594"/><stop stop-opacity="1" stop-color="rgb(12.713623%, 31.147766%, 71.409607%)" offset="0.3125"/><stop stop-opacity="1" stop-color="rgb(13.337708%, 31.251526%, 71.585083%)" offset="0.316406"/><stop stop-opacity="1" stop-color="rgb(13.961792%, 31.356812%, 71.760559%)" offset="0.320312"/><stop stop-opacity="1" stop-color="rgb(14.584351%, 31.460571%, 71.936035%)" offset="0.324219"/><stop stop-opacity="1" stop-color="rgb(15.208435%, 31.565857%, 72.111511%)" offset="0.328125"/><stop stop-opacity="1" stop-color="rgb(15.83252%, 31.669617%, 72.285461%)" offset="0.332031"/><stop stop-opacity="1" stop-color="rgb(16.456604%, 31.774902%, 72.460938%)" offset="0.335937"/><stop stop-opacity="1" stop-color="rgb(17.080688%, 31.878662%, 72.636414%)" offset="0.339844"/><stop stop-opacity="1" stop-color="rgb(17.704773%, 31.983948%, 72.81189%)" offset="0.34375"/><stop stop-opacity="1" stop-color="rgb(18.328857%, 32.087708%, 72.987366%)" offset="0.347656"/><stop stop-opacity="1" stop-color="rgb(18.952942%, 32.192993%, 73.162842%)" offset="0.351562"/><stop stop-opacity="1" stop-color="rgb(19.5755%, 32.296753%, 73.338318%)" offset="0.355469"/><stop stop-opacity="1" stop-color="rgb(20.199585%, 32.402039%, 73.513794%)" offset="0.359375"/><stop stop-opacity="1" stop-color="rgb(20.823669%, 32.505798%, 73.687744%)" offset="0.363281"/><stop stop-opacity="1" stop-color="rgb(21.447754%, 32.611084%, 73.86322%)" offset="0.367187"/><stop stop-opacity="1" stop-color="rgb(22.071838%, 32.714844%, 74.038696%)" offset="0.371094"/><stop stop-opacity="1" stop-color="rgb(22.695923%, 32.820129%, 74.214172%)" offset="0.375"/><stop stop-opacity="1" stop-color="rgb(23.320007%, 32.923889%, 74.389648%)" offset="0.378906"/><stop stop-opacity="1" stop-color="rgb(23.944092%, 33.029175%, 74.565125%)" offset="0.382812"/><stop stop-opacity="1" stop-color="rgb(24.56665%, 33.132935%, 74.739075%)" offset="0.386719"/><stop stop-opacity="1" stop-color="rgb(25.190735%, 33.236694%, 74.914551%)" offset="0.390625"/><stop stop-opacity="1" stop-color="rgb(25.814819%, 33.340454%, 75.090027%)" offset="0.394531"/><stop stop-opacity="1" stop-color="rgb(26.438904%, 33.44574%, 75.265503%)" offset="0.398437"/><stop stop-opacity="1" stop-color="rgb(27.062988%, 33.5495%, 75.440979%)" offset="0.402344"/><stop stop-opacity="1" stop-color="rgb(27.687073%, 33.654785%, 75.616455%)" offset="0.40625"/><stop stop-opacity="1" stop-color="rgb(28.311157%, 33.758545%, 75.790405%)" offset="0.410156"/><stop stop-opacity="1" stop-color="rgb(28.935242%, 33.863831%, 75.965881%)" offset="0.414062"/><stop stop-opacity="1" stop-color="rgb(29.5578%, 33.96759%, 76.141357%)" offset="0.417969"/><stop stop-opacity="1" stop-color="rgb(30.181885%, 34.072876%, 76.316833%)" offset="0.421875"/><stop stop-opacity="1" stop-color="rgb(30.805969%, 34.176636%, 76.49231%)" offset="0.425781"/><stop stop-opacity="1" stop-color="rgb(31.430054%, 34.281921%, 76.667786%)" offset="0.429687"/><stop stop-opacity="1" stop-color="rgb(32.054138%, 34.385681%, 76.841736%)" offset="0.433594"/><stop stop-opacity="1" stop-color="rgb(32.678223%, 34.490967%, 77.017212%)" offset="0.4375"/><stop stop-opacity="1" stop-color="rgb(33.302307%, 34.594727%, 77.192688%)" offset="0.441406"/><stop stop-opacity="1" stop-color="rgb(33.926392%, 34.700012%, 77.368164%)" offset="0.445312"/><stop stop-opacity="1" stop-color="rgb(34.550476%, 34.803772%, 77.54364%)" offset="0.449219"/><stop stop-opacity="1" stop-color="rgb(35.174561%, 34.909058%, 77.719116%)" offset="0.453125"/><stop stop-opacity="1" stop-color="rgb(35.797119%, 35.012817%, 77.893066%)" offset="0.457031"/><stop stop-opacity="1" stop-color="rgb(36.421204%, 35.118103%, 78.068542%)" offset="0.460937"/><stop stop-opacity="1" stop-color="rgb(37.045288%, 35.221863%, 78.244019%)" offset="0.464844"/><stop stop-opacity="1" stop-color="rgb(37.669373%, 35.327148%, 78.419495%)" offset="0.46875"/><stop stop-opacity="1" stop-color="rgb(38.293457%, 35.430908%, 78.594971%)" offset="0.472656"/><stop stop-opacity="1" stop-color="rgb(38.917542%, 35.536194%, 78.770447%)" offset="0.476562"/><stop stop-opacity="1" stop-color="rgb(39.541626%, 35.639954%, 78.944397%)" offset="0.480469"/><stop stop-opacity="1" stop-color="rgb(40.16571%, 35.745239%, 79.119873%)" offset="0.484375"/><stop stop-opacity="1" stop-color="rgb(40.788269%, 35.848999%, 79.295349%)" offset="0.488281"/><stop stop-opacity="1" stop-color="rgb(41.412354%, 35.954285%, 79.470825%)" offset="0.492188"/><stop stop-opacity="1" stop-color="rgb(42.036438%, 36.058044%, 79.646301%)" offset="0.496094"/><stop stop-opacity="1" stop-color="rgb(42.660522%, 36.161804%, 79.821777%)" offset="0.5"/><stop stop-opacity="1" stop-color="rgb(43.284607%, 36.265564%, 79.997253%)" offset="0.503906"/><stop stop-opacity="1" stop-color="rgb(43.908691%, 36.37085%, 80.172729%)" offset="0.507812"/><stop stop-opacity="1" stop-color="rgb(44.532776%, 36.474609%, 80.34668%)" offset="0.511719"/><stop stop-opacity="1" stop-color="rgb(45.15686%, 36.579895%, 80.522156%)" offset="0.515625"/><stop stop-opacity="1" stop-color="rgb(45.779419%, 36.683655%, 80.697632%)" offset="0.519531"/><stop stop-opacity="1" stop-color="rgb(46.403503%, 36.78894%, 80.873108%)" offset="0.523437"/><stop stop-opacity="1" stop-color="rgb(47.027588%, 36.8927%, 81.048584%)" offset="0.527344"/><stop stop-opacity="1" stop-color="rgb(47.651672%, 36.997986%, 81.22406%)" offset="0.53125"/><stop stop-opacity="1" stop-color="rgb(48.275757%, 37.101746%, 81.39801%)" offset="0.535156"/><stop stop-opacity="1" stop-color="rgb(48.899841%, 37.207031%, 81.573486%)" offset="0.539062"/><stop stop-opacity="1" stop-color="rgb(49.523926%, 37.310791%, 81.748962%)" offset="0.542969"/><stop stop-opacity="1" stop-color="rgb(50.14801%, 37.416077%, 81.924438%)" offset="0.546875"/><stop stop-opacity="1" stop-color="rgb(50.770569%, 37.519836%, 82.099915%)" offset="0.550781"/><stop stop-opacity="1" stop-color="rgb(51.394653%, 37.625122%, 82.275391%)" offset="0.554688"/><stop stop-opacity="1" stop-color="rgb(52.018738%, 37.728882%, 82.449341%)" offset="0.558594"/><stop stop-opacity="1" stop-color="rgb(52.642822%, 37.834167%, 82.624817%)" offset="0.5625"/><stop stop-opacity="1" stop-color="rgb(53.266907%, 37.937927%, 82.800293%)" offset="0.566406"/><stop stop-opacity="1" stop-color="rgb(53.890991%, 38.043213%, 82.975769%)" offset="0.570312"/><stop stop-opacity="1" stop-color="rgb(54.515076%, 38.146973%, 83.151245%)" offset="0.574219"/><stop stop-opacity="1" stop-color="rgb(55.13916%, 38.252258%, 83.326721%)" offset="0.578125"/><stop stop-opacity="1" stop-color="rgb(55.761719%, 38.356018%, 83.500671%)" offset="0.582031"/><stop stop-opacity="1" stop-color="rgb(56.385803%, 38.461304%, 83.676147%)" offset="0.585937"/><stop stop-opacity="1" stop-color="rgb(57.009888%, 38.565063%, 83.851624%)" offset="0.589844"/><stop stop-opacity="1" stop-color="rgb(57.633972%, 38.670349%, 84.0271%)" offset="0.59375"/><stop stop-opacity="1" stop-color="rgb(58.258057%, 38.774109%, 84.202576%)" offset="0.597656"/><stop stop-opacity="1" stop-color="rgb(58.882141%, 38.879395%, 84.378052%)" offset="0.601562"/><stop stop-opacity="1" stop-color="rgb(59.506226%, 38.983154%, 84.552002%)" offset="0.605469"/><stop stop-opacity="1" stop-color="rgb(60.13031%, 39.086914%, 84.727478%)" offset="0.609375"/><stop stop-opacity="1" stop-color="rgb(60.752869%, 39.190674%, 84.902954%)" offset="0.613281"/><stop stop-opacity="1" stop-color="rgb(61.376953%, 39.295959%, 85.07843%)" offset="0.617188"/><stop stop-opacity="1" stop-color="rgb(62.001038%, 39.399719%, 85.253906%)" offset="0.621094"/><stop stop-opacity="1" stop-color="rgb(62.625122%, 39.505005%, 85.429382%)" offset="0.625"/><stop stop-opacity="1" stop-color="rgb(63.249207%, 39.608765%, 85.603333%)" offset="0.628906"/><stop stop-opacity="1" stop-color="rgb(63.873291%, 39.71405%, 85.778809%)" offset="0.632812"/><stop stop-opacity="1" stop-color="rgb(64.497375%, 39.81781%, 85.954285%)" offset="0.636719"/><stop stop-opacity="1" stop-color="rgb(65.12146%, 39.923096%, 86.129761%)" offset="0.640625"/><stop stop-opacity="1" stop-color="rgb(65.744019%, 40.026855%, 86.305237%)" offset="0.644531"/><stop stop-opacity="1" stop-color="rgb(66.368103%, 40.132141%, 86.480713%)" offset="0.648437"/><stop stop-opacity="1" stop-color="rgb(66.992188%, 40.235901%, 86.654663%)" offset="0.652344"/><stop stop-opacity="1" stop-color="rgb(67.616272%, 40.341187%, 86.830139%)" offset="0.65625"/><stop stop-opacity="1" stop-color="rgb(68.240356%, 40.444946%, 87.005615%)" offset="0.660156"/><stop stop-opacity="1" stop-color="rgb(68.864441%, 40.550232%, 87.181091%)" offset="0.664062"/><stop stop-opacity="1" stop-color="rgb(69.488525%, 40.653992%, 87.356567%)" offset="0.667969"/><stop stop-opacity="1" stop-color="rgb(70.11261%, 40.759277%, 87.532043%)" offset="0.671875"/><stop stop-opacity="1" stop-color="rgb(70.735168%, 40.863037%, 87.70752%)" offset="0.675781"/><stop stop-opacity="1" stop-color="rgb(71.359253%, 40.968323%, 87.882996%)" offset="0.679688"/><stop stop-opacity="1" stop-color="rgb(71.983337%, 41.072083%, 88.056946%)" offset="0.683594"/><stop stop-opacity="1" stop-color="rgb(72.607422%, 41.177368%, 88.232422%)" offset="0.6875"/><stop stop-opacity="1" stop-color="rgb(73.231506%, 41.281128%, 88.407898%)" offset="0.691406"/><stop stop-opacity="1" stop-color="rgb(73.855591%, 41.386414%, 88.583374%)" offset="0.695312"/><stop stop-opacity="1" stop-color="rgb(74.479675%, 41.490173%, 88.75885%)" offset="0.699219"/><stop stop-opacity="1" stop-color="rgb(75.10376%, 41.595459%, 88.934326%)" offset="0.703125"/><stop stop-opacity="1" stop-color="rgb(75.726318%, 41.699219%, 89.108276%)" offset="0.707031"/><stop stop-opacity="1" stop-color="rgb(76.350403%, 41.802979%, 89.283752%)" offset="0.710937"/><stop stop-opacity="1" stop-color="rgb(76.974487%, 41.906738%, 89.459229%)" offset="0.714844"/><stop stop-opacity="1" stop-color="rgb(77.598572%, 42.012024%, 89.634705%)" offset="0.71875"/><stop stop-opacity="1" stop-color="rgb(78.222656%, 42.115784%, 89.810181%)" offset="0.722656"/><stop stop-opacity="1" stop-color="rgb(78.846741%, 42.221069%, 89.985657%)" offset="0.726562"/><stop stop-opacity="1" stop-color="rgb(79.22821%, 42.285156%, 90.092468%)" offset="0.730469"/><stop stop-opacity="1" stop-color="rgb(79.60968%, 42.349243%, 90.19928%)" offset="0.734375"/><stop stop-opacity="1" stop-color="rgb(79.60968%, 42.349243%, 90.19928%)" offset="0.75"/><stop stop-opacity="1" stop-color="rgb(79.60968%, 42.349243%, 90.19928%)" offset="1"/></linearGradient><clipPath id="e9928426b9"><rect x="0" width="384" y="0" height="384"/></clipPath><clipPath id="cc2294cbc5"><rect x="0" width="384" y="0" height="384"/></clipPath><clipPath id="a9549d5c84"><rect x="0" width="384" y="0" height="384"/></clipPath><mask id="52c9a417fc"><g filter="url(#06c4abba3d)"><g><g clip-path="url(#a9549d5c84)"><g><g clip-path="url(#cc2294cbc5)"><g fill="#000000" fill-opacity="1"><g transform="translate(89.920848, 137.971237)"><g><path d="M 48.859375 1.453125 C 40.460938 1.453125 33.203125 -0.460938 27.078125 -4.296875 C 20.953125 -8.128906 16.226562 -13.910156 12.90625 -21.640625 C 9.582031 -29.378906 7.921875 -38.9375 7.921875 -50.3125 C 7.921875 -61.78125 9.914062 -71.378906 13.90625 -79.109375 C 17.894531 -86.847656 23.429688 -92.609375 30.515625 -96.390625 C 37.609375 -100.171875 45.835938 -102.0625 55.203125 -102.0625 C 64.835938 -102.0625 73.046875 -100.269531 79.828125 -96.6875 C 86.617188 -93.113281 91.394531 -87.796875 94.15625 -80.734375 L 79.625 -71.921875 L 77.90625 -71.984375 C 75.84375 -76.484375 72.941406 -79.765625 69.203125 -81.828125 C 65.460938 -83.898438 60.796875 -84.9375 55.203125 -84.9375 C 46.523438 -84.9375 39.890625 -82.191406 35.296875 -76.703125 C 30.710938 -71.222656 28.421875 -62.425781 28.421875 -50.3125 C 28.421875 -38.15625 30.566406 -29.320312 34.859375 -23.8125 C 39.148438 -18.300781 45.492188 -15.546875 53.890625 -15.546875 C 61.140625 -15.546875 66.484375 -17.175781 69.921875 -20.4375 C 73.367188 -23.695312 75.09375 -28.5625 75.09375 -35.03125 L 75.09375 -39.375 L 51.28125 -39.375 L 51.28125 -55.546875 L 94.84375 -55.546875 L 94.84375 0 L 75.84375 0 L 75.84375 -13.484375 L 74.40625 -13.703125 C 72.332031 -8.878906 69.195312 -5.144531 65 -2.5 C 60.800781 0.132812 55.421875 1.453125 48.859375 1.453125 Z M 48.859375 1.453125 "/></g></g></g><g fill="#000000" fill-opacity="1"><g transform="translate(194.87321, 137.971237)"><g><path d="M 44.59375 1.453125 C 37.625 1.453125 31.421875 0.589844 25.984375 -1.125 C 20.546875 -2.851562 16.015625 -5.113281 12.390625 -7.90625 C 8.765625 -10.707031 5.988281 -13.785156 4.0625 -17.140625 L 15 -30.484375 L 16.71875 -30.484375 C 19.75 -25.992188 23.59375 -22.414062 28.25 -19.75 C 32.90625 -17.09375 38.351562 -15.765625 44.59375 -15.765625 C 49.914062 -15.765625 53.929688 -16.882812 56.640625 -19.125 C 59.347656 -21.375 60.703125 -24.472656 60.703125 -28.421875 C 60.703125 -30.804688 60.265625 -32.800781 59.390625 -34.40625 C 58.523438 -36.019531 57.082031 -37.398438 55.0625 -38.546875 C 53.039062 -39.691406 50.3125 -40.675781 46.875 -41.5 L 33.9375 -44.453125 C 24.894531 -46.523438 18.160156 -49.957031 13.734375 -54.75 C 9.304688 -59.539062 7.09375 -65.769531 7.09375 -73.4375 C 7.09375 -79.125 8.515625 -84.125 11.359375 -88.4375 C 14.203125 -92.75 18.34375 -96.097656 23.78125 -98.484375 C 29.21875 -100.867188 35.722656 -102.0625 43.296875 -102.0625 C 51.046875 -102.0625 57.6875 -101.039062 63.21875 -99 C 68.75 -96.957031 73.414062 -93.828125 77.21875 -89.609375 L 67.375 -76.125 L 65.65625 -76.125 C 62.8125 -79.101562 59.550781 -81.335938 55.875 -82.828125 C 52.207031 -84.316406 48.015625 -85.0625 43.296875 -85.0625 C 37.828125 -85.0625 33.671875 -84.097656 30.828125 -82.171875 C 27.984375 -80.242188 26.5625 -77.582031 26.5625 -74.1875 C 26.5625 -71.019531 27.554688 -68.492188 29.546875 -66.609375 C 31.546875 -64.734375 35.003906 -63.269531 39.921875 -62.21875 L 53.125 -59.46875 C 62.90625 -57.40625 69.992188 -53.90625 74.390625 -48.96875 C 78.796875 -44.03125 81 -37.59375 81 -29.65625 C 81 -23.375 79.644531 -17.90625 76.9375 -13.25 C 74.238281 -8.59375 70.15625 -4.976562 64.6875 -2.40625 C 59.226562 0.164062 52.53125 1.453125 44.59375 1.453125 Z M 44.59375 1.453125 "/></g></g></g></g></g></g></g></g></mask><clipPath id="3b96148544"><path d="M 0 0 L 384 0 L 384 384 L 0 384 Z M 0 0 " clip-rule="nonzero"/></clipPath><clipPath id="b344730c2c"><rect x="0" width="384" y="0" height="384"/></clipPath><clipPath id="ef4d55c4e9"><rect x="0" width="384" y="0" height="384"/></clipPath><clipPath id="f97246a859"><rect x="0" width="384" y="0" height="384"/></clipPath></defs><path fill="#ffffff" d="M 372.941406 191.9375 C 372.941406 291.90625 291.902344 372.941406 191.933594 372.941406 C 91.964844 372.941406 10.921875 291.90625 10.921875 191.9375 C 10.921875 91.964844 91.964844 10.921875 191.933594 10.921875 C 291.902344 10.921875 372.941406 91.964844 372.941406 191.9375 " fill-opacity="1" fill-rule="nonzero"/><path fill="#5bbecf" d="M 191.933594 21.894531 C 98.175781 21.894531 21.894531 98.175781 21.894531 191.933594 C 21.894531 285.695312 98.175781 361.96875 191.933594 361.96875 C 285.695312 361.96875 361.96875 285.695312 361.96875 191.933594 C 361.96875 98.175781 285.695312 21.894531 191.933594 21.894531 Z M 191.933594 383.914062 C 86.074219 383.914062 -0.046875 297.796875 -0.046875 191.933594 C -0.046875 86.078125 86.074219 -0.046875 191.933594 -0.046875 C 297.792969 -0.046875 383.914062 86.078125 383.914062 191.933594 C 383.914062 297.796875 297.792969 383.914062 191.933594 383.914062 " fill-opacity="1" fill-rule="nonzero"/><path fill="#5bbecf" d="M 191.933594 206.082031 L 309.203125 108.378906 C 308.578125 108.257812 308.003906 108.003906 307.339844 108.003906 L 76.527344 108.003906 C 75.894531 108.003906 75.308594 108.257812 74.683594 108.378906 L 191.933594 206.082031 " fill-opacity="1" fill-rule="nonzero"/><path fill="#5bbecf" d="M 317.832031 118.496094 C 317.832031 117.390625 317.523438 116.375 317.207031 115.371094 L 234.0625 184.648438 L 317.332031 267.925781 C 317.53125 267.085938 317.832031 266.273438 317.832031 265.375 L 317.832031 118.496094 " fill-opacity="1" fill-rule="nonzero"/><path fill="#5bbecf" d="M 66.679688 115.359375 C 66.355469 116.363281 66.039062 117.375 66.039062 118.496094 L 66.039062 265.375 C 66.039062 266.285156 66.347656 267.097656 66.5625 267.9375 L 149.835938 184.660156 L 66.679688 115.359375 " fill-opacity="1" fill-rule="nonzero"/><path fill="#5bbecf" d="M 225.960938 191.398438 L 195.292969 216.941406 C 194.332031 217.765625 193.144531 218.164062 191.933594 218.164062 C 190.742188 218.164062 189.554688 217.765625 188.582031 216.941406 L 157.925781 191.410156 L 73.988281 275.34375 C 74.820312 275.566406 75.636719 275.867188 76.527344 275.867188 L 307.339844 275.867188 C 308.25 275.867188 309.070312 275.566406 309.910156 275.34375 L 225.960938 191.398438 " fill-opacity="1" fill-rule="nonzero"/><g><g clip-path="url(#f97246a859)"><g fill="#000000" fill-opacity="1"><g transform="translate(89.920848, 137.971237)"><g><path d="M 48.863281 6.730469 C 39.457031 6.730469 31.261719 4.546875 24.277344 0.179688 C 17.21875 -4.234375 11.808594 -10.8125 8.046875 -19.554688 C 4.433594 -27.953125 2.628906 -38.203125 2.628906 -50.308594 C 2.628906 -62.636719 4.820312 -73.046875 9.207031 -81.539062 C 13.699219 -90.242188 19.976562 -96.746094 28.03125 -101.050781 C 35.898438 -105.25 44.953125 -107.351562 55.195312 -107.351562 C 65.703125 -107.351562 74.738281 -105.359375 82.300781 -101.371094 C 90.253906 -97.179688 95.84375 -90.941406 99.074219 -82.648438 L 100.6875 -78.511719 L 81.007812 -66.574219 L 74.457031 -66.835938 L 73.105469 -69.78125 C 71.523438 -73.226562 69.371094 -75.699219 66.648438 -77.203125 C 63.703125 -78.828125 59.886719 -79.640625 55.195312 -79.640625 C 51.558594 -79.640625 48.40625 -79.089844 45.738281 -77.988281 C 43.226562 -76.945312 41.097656 -75.386719 39.359375 -73.3125 C 37.574219 -71.175781 36.207031 -68.292969 35.257812 -64.660156 C 34.226562 -60.699219 33.710938 -55.914062 33.710938 -50.308594 C 33.710938 -44.652344 34.195312 -39.820312 35.167969 -35.8125 C 36.0625 -32.132812 37.347656 -29.21875 39.027344 -27.0625 C 40.621094 -25.019531 42.589844 -23.488281 44.9375 -22.46875 C 47.4375 -21.382812 50.421875 -20.839844 53.886719 -20.839844 C 59.734375 -20.839844 63.867188 -21.988281 66.289062 -24.277344 C 68.628906 -26.496094 69.800781 -30.078125 69.800781 -35.03125 L 69.800781 -39.367188 L 75.085938 -39.367188 L 75.085938 -34.082031 L 45.988281 -34.082031 L 45.988281 -60.828125 L 100.125 -60.828125 L 100.125 5.285156 L 70.558594 5.285156 L 70.558594 -13.488281 L 75.84375 -13.488281 L 75.09375 -8.257812 L 73.648438 -8.460938 L 74.398438 -13.695312 L 79.257812 -11.613281 C 76.757812 -5.785156 72.945312 -1.257812 67.816406 1.964844 C 62.757812 5.140625 56.441406 6.730469 48.863281 6.730469 Z M 48.863281 -3.839844 C 54.410156 -3.839844 58.851562 -4.890625 62.191406 -6.988281 C 65.457031 -9.039062 67.90625 -11.972656 69.539062 -15.777344 L 71.136719 -19.5 L 81.128906 -18.074219 L 81.128906 0 L 75.84375 0 L 75.84375 -5.285156 L 94.839844 -5.285156 L 94.839844 0 L 89.550781 0 L 89.550781 -55.539062 L 94.839844 -55.539062 L 94.839844 -50.253906 L 51.273438 -50.253906 L 51.273438 -55.539062 L 56.558594 -55.539062 L 56.558594 -39.367188 L 51.273438 -39.367188 L 51.273438 -44.652344 L 80.371094 -44.652344 L 80.371094 -35.03125 C 80.371094 -27.046875 78.101562 -20.902344 73.558594 -16.601562 C 69.097656 -12.378906 62.542969 -10.269531 53.886719 -10.269531 C 48.957031 -10.269531 44.570312 -11.101562 40.730469 -12.769531 C 36.734375 -14.503906 33.386719 -17.101562 30.6875 -20.5625 C 25.65625 -27.023438 23.136719 -36.941406 23.136719 -50.308594 C 23.136719 -63.703125 25.84375 -73.632812 31.253906 -80.097656 C 34.101562 -83.5 37.585938 -86.054688 41.699219 -87.757812 C 45.660156 -89.394531 50.160156 -90.214844 55.195312 -90.214844 C 61.703125 -90.214844 67.222656 -88.960938 71.757812 -86.457031 C 76.511719 -83.832031 80.164062 -79.746094 82.710938 -74.195312 L 77.90625 -71.988281 L 78.117188 -77.269531 L 79.839844 -77.203125 L 79.628906 -71.921875 L 76.886719 -76.441406 L 91.410156 -85.25 L 94.148438 -80.730469 L 89.226562 -78.8125 C 86.949219 -84.652344 82.996094 -89.054688 77.371094 -92.019531 C 71.351562 -95.191406 63.960938 -96.777344 55.195312 -96.777344 C 46.71875 -96.777344 39.324219 -95.09375 33.011719 -91.722656 C 26.890625 -88.457031 22.085938 -83.441406 18.597656 -76.6875 C 15 -69.714844 13.199219 -60.925781 13.199219 -50.308594 C 13.199219 -39.65625 14.71875 -30.796875 17.761719 -23.734375 C 20.652344 -17.015625 24.691406 -12.03125 29.886719 -8.78125 C 35.152344 -5.488281 41.480469 -3.839844 48.863281 -3.839844 Z M 48.863281 -3.839844 "/></g></g></g><g fill="#000000" fill-opacity="1"><g transform="translate(194.87321, 137.971237)"><g><path d="M 44.597656 6.730469 C 37.078125 6.730469 30.34375 5.789062 24.386719 3.902344 C 18.351562 1.996094 13.277344 -0.550781 9.15625 -3.730469 C 4.980469 -6.957031 1.753906 -10.546875 -0.519531 -14.5 L -2.339844 -17.664062 L 12.5 -35.773438 L 19.535156 -35.773438 L 21.109375 -33.441406 C 23.675781 -29.628906 26.933594 -26.59375 30.875 -24.34375 C 34.71875 -22.144531 39.292969 -21.046875 44.597656 -21.046875 C 48.648438 -21.046875 51.535156 -21.765625 53.265625 -23.199219 C 53.976562 -23.789062 54.5 -24.476562 54.84375 -25.257812 C 55.226562 -26.132812 55.414062 -27.1875 55.414062 -28.425781 C 55.414062 -29.914062 55.195312 -31.070312 54.75 -31.890625 C 54.359375 -32.609375 53.589844 -33.296875 52.445312 -33.945312 C 50.863281 -34.84375 48.589844 -35.652344 45.636719 -36.359375 L 32.75 -39.308594 C 22.648438 -41.613281 15.015625 -45.566406 9.847656 -51.164062 C 4.484375 -56.96875 1.804688 -64.394531 1.804688 -73.433594 C 1.804688 -80.179688 3.515625 -86.152344 6.941406 -91.347656 C 10.359375 -96.53125 15.265625 -100.523438 21.65625 -103.328125 C 27.769531 -106.007812 34.980469 -107.351562 43.289062 -107.351562 C 51.671875 -107.351562 58.925781 -106.222656 65.046875 -103.960938 C 71.386719 -101.617188 76.753906 -98.015625 81.144531 -93.148438 L 84.019531 -89.960938 L 70.066406 -70.832031 L 63.394531 -70.832031 L 61.832031 -72.46875 C 59.511719 -74.90625 56.863281 -76.726562 53.894531 -77.929688 C 50.863281 -79.164062 47.328125 -79.78125 43.289062 -79.78125 C 38.910156 -79.78125 35.746094 -79.117188 33.796875 -77.796875 C 33.097656 -77.324219 32.59375 -76.804688 32.292969 -76.242188 C 32 -75.691406 31.851562 -75.007812 31.851562 -74.191406 C 31.851562 -72.546875 32.296875 -71.304688 33.183594 -70.46875 C 33.726562 -69.957031 34.566406 -69.460938 35.714844 -68.972656 C 37.132812 -68.371094 38.902344 -67.839844 41.027344 -67.382812 L 54.210938 -64.636719 C 65.121094 -62.332031 73.167969 -58.28125 78.339844 -52.488281 C 83.640625 -46.554688 86.289062 -38.945312 86.289062 -29.664062 C 86.289062 -22.425781 84.699219 -16.070312 81.515625 -10.59375 C 78.253906 -4.984375 73.398438 -0.664062 66.945312 2.375 C 60.773438 5.277344 53.324219 6.730469 44.597656 6.730469 Z M 44.597656 -3.839844 C 51.746094 -3.839844 57.695312 -4.957031 62.441406 -7.191406 C 66.910156 -9.292969 70.21875 -12.199219 72.375 -15.90625 C 74.605469 -19.742188 75.71875 -24.328125 75.71875 -29.664062 C 75.71875 -36.257812 73.964844 -41.515625 70.457031 -45.445312 C 66.820312 -49.515625 60.6875 -52.464844 52.054688 -54.289062 L 38.804688 -57.046875 C 32.9375 -58.308594 28.644531 -60.21875 25.933594 -62.773438 C 24.363281 -64.253906 23.1875 -65.988281 22.398438 -67.980469 C 21.652344 -69.867188 21.28125 -71.9375 21.28125 -74.191406 C 21.28125 -76.773438 21.84375 -79.117188 22.96875 -81.226562 C 24.09375 -83.324219 25.726562 -85.097656 27.867188 -86.550781 C 31.609375 -89.085938 36.75 -90.351562 43.289062 -90.351562 C 48.703125 -90.351562 53.566406 -89.476562 57.875 -87.726562 C 62.246094 -85.949219 66.113281 -83.296875 69.480469 -79.765625 L 65.65625 -76.117188 L 65.65625 -81.40625 L 67.378906 -81.40625 L 67.378906 -76.117188 L 63.109375 -79.234375 L 72.949219 -92.722656 L 77.21875 -89.609375 L 73.292969 -86.066406 C 70.066406 -89.644531 66.097656 -92.300781 61.382812 -94.042969 C 56.445312 -95.867188 50.414062 -96.777344 43.289062 -96.777344 C 36.457031 -96.777344 30.664062 -95.734375 25.902344 -93.644531 C 21.417969 -91.675781 18.039062 -88.972656 15.769531 -85.527344 C 13.507812 -82.097656 12.375 -78.066406 12.375 -73.433594 C 12.375 -67.148438 14.121094 -62.117188 17.613281 -58.335938 C 21.300781 -54.34375 27.132812 -51.433594 35.109375 -49.613281 L 48.101562 -46.640625 C 52.027344 -45.699219 55.21875 -44.53125 57.667969 -43.136719 C 60.5625 -41.492188 62.6875 -39.425781 64.039062 -36.933594 C 65.339844 -34.542969 65.988281 -31.703125 65.988281 -28.425781 C 65.988281 -25.714844 65.503906 -23.25 64.53125 -21.023438 C 63.519531 -18.710938 62.015625 -16.722656 60.019531 -15.066406 C 56.332031 -12.003906 51.191406 -10.472656 44.597656 -10.472656 C 37.421875 -10.472656 31.097656 -12.039062 25.628906 -15.164062 C 20.257812 -18.230469 15.828125 -22.355469 12.339844 -27.535156 L 16.722656 -30.488281 L 16.722656 -25.203125 L 15.003906 -25.203125 L 15.003906 -30.488281 L 19.09375 -27.136719 L 8.148438 -13.785156 L 4.0625 -17.136719 L 8.640625 -19.773438 C 10.222656 -17.027344 12.546875 -14.472656 15.617188 -12.097656 C 18.75 -9.683594 22.734375 -7.707031 27.574219 -6.175781 C 32.492188 -4.617188 38.167969 -3.839844 44.597656 -3.839844 Z M 44.597656 -3.839844 "/></g></g></g><g><g clip-path="url(#ef4d55c4e9)"><g mask="url(#52c9a417fc)"><g><g clip-path="url(#b344730c2c)"><g clip-path="url(#3b96148544)"><rect x="-206.1312" fill="url(#6eadd8bdfc)" width="796.2624" height="796.26237" y="-206.131192"/></g></g></g></g></g></g></g></g></svg>